# xmcd
#
# Track frame offsets: 
#        150
#        11330
#        47230
#        55550
#        77100
#        101935
#        150378
#        165288
#        192320
#        202263
#        228945
#        255518
#        276638
#
# Disc length: 4400 seconds
#
# Revision: 4
# Processed by: cddbd v1.5.2PL0 Copyright (c) Steve Scherf et al.
# Submitted via: ExactAudioCopy v0.99pb5
#
DISCID=a8112e0d
DTITLE=Messiaen, Olivier - Volume 6 (Peter Hill - Brilliant Classics, 
DTITLE=7cd)
DYEAR=1985
DGENRE=Piano
TTITLE0=Préludes (1929) - I. La Colombe
TTITLE1=Préludes - II. Chant d'extase dans un paysage triste
TTITLE2=Préludes - III. Le nombre léger
TTITLE3=Préludes - IV. Instants défunts
TTITLE4=Préludes - V. Les sons impalpables du rêve
TTITLE5=Préludes - VI. Cloches d'angoisse et larmes d'adieu
TTITLE6=Préludes - VII. Plainte calme
TTITLE7=Préludes - VIII. Un reflet dans le vent
TTITLE8=Quatre études de rythme (1949-50) - I. Île de feu I
TTITLE9=Quatre études de rythme - II. Mode de valeurs et d'intensités
TTITLE10=Quatre études de rythme - III. Neumes rythmiques
TTITLE11=Quatre études de rythme - IV. Île de feu II
TTITLE12=Cantéyodjayâ (1949)
EXTD=The Piano Music of Olivier Messiaen\n\nPréludes (1929]\nQuatre Ét
EXTD=udes de Rythme (1949-1950]\nCantéyodjaya (1949]\n\nPeter Hill, pi
EXTD=ano\n\nc1989 Unicorn-Kanchana Records, London\noriginally issues 
EXTD=in 1985 (Preludes) and 1986 YEAR: 1985
EXTT0=
EXTT1=
EXTT2=
EXTT3=
EXTT4=
EXTT5=
EXTT6=
EXTT7=
EXTT8=
EXTT9=
EXTT10=
EXTT11=
EXTT12=
PLAYORDER=
